<?xml version="1.0" encoding="UTF-8" standalone="no"?>
<!DOCTYPE svg PUBLIC "-//W3C//DTD SVG 1.1//EN" "http://www.w3.org/Graphics/SVG/1.1/DTD/svg11.dtd">
<svg
  width="100%"
  height="100%"
  viewBox="0 0 1805 1846"
  version="1.1"
  xmlns="http://www.w3.org/2000/svg"
  xml:space="preserve"
  style="fill-rule: evenodd; clip-rule: evenodd; stroke-linejoin: round; stroke-miterlimit: 2"
>
  <g transform="matrix(1,0,0,1,-624.35,-289.306)">
    <g id="Layer2">
      <g transform="matrix(1,0,0,1,0,-3.95154)">
        <path
          d="M1311.73,2002.62C1242.64,1952 1197.74,1870.28 1197.74,1778.15C1197.74,1624.66 1322.35,1500.05 1475.84,1500.05C1519.95,1500.05 1561.68,1510.34 1598.75,1528.65C1690.66,1574.06 1753.94,1668.77 1753.94,1778.15C1753.94,1931.63 1629.33,2056.24 1475.84,2056.24C1416.36,2056.24 1361.23,2037.53 1315.99,2005.68C1314.56,2004.68 1313.14,2003.65 1311.73,2002.62Z"
          style="fill: rgb(83, 208, 149)"
        />
      </g>
      <g transform="matrix(1,0,0,1,0,-3.95154)">
        <path
          d="M1598.75,1528.65C1675.85,1543.77 1818.5,1678.05 1846.85,1812.49C1881.22,1975.39 1753.51,2112.31 1594.23,2118.19C1518.32,2120.99 1435.64,2109.49 1311.73,2002.62C1357.74,2036.33 1414.48,2056.24 1475.84,2056.24C1629.33,2056.24 1753.94,1931.63 1753.94,1778.15C1753.94,1668.77 1690.66,1574.06 1598.75,1528.65Z"
          style="fill: rgb(36, 13, 213); stroke: rgb(36, 13, 213); stroke-width: 1px"
        />
      </g>
      <g transform="matrix(1.11585,0,0,1.11585,-203.197,-236.076)">
        <circle
          cx="1504.71"
          cy="1801.56"
          r="249.225"
          style="
            fill: none;
            stroke: rgb(36, 13, 213);
            stroke-width: 36.91px;
            stroke-linecap: round;
            stroke-miterlimit: 1.5;
          "
        />
      </g>
      <g transform="matrix(1,0,0,1,0,-3.95154)">
        <path
          d="M1631.38,1546.9C1704.29,1594.93 1818.39,1677.58 1846.85,1812.49C1881.22,1975.39 1753.51,2112.31 1594.23,2118.19C1517.12,2121.04 1437.74,2105.12 1305.83,1997.49"
          style="
            fill: none;
            stroke: rgb(36, 13, 213);
            stroke-width: 41.18px;
            stroke-miterlimit: 1.5;
          "
        />
      </g>
    </g>
    <g id="Layer21" transform="matrix(1,0,0,1,-552.798,-618.501)">
      <g transform="matrix(1,0,0,1,552.798,618.501)">
        <path
          d="M758.93,1384.12C689.839,1333.5 644.942,1251.78 644.942,1159.64C644.942,1006.16 769.553,881.546 923.04,881.546C967.153,881.546 1008.88,891.839 1045.95,910.152C1137.86,955.559 1201.14,1050.27 1201.14,1159.64C1201.14,1313.13 1076.53,1437.74 923.04,1437.74C863.565,1437.74 808.426,1419.03 763.193,1387.18C761.762,1386.17 760.341,1385.15 758.93,1384.12Z"
          style="fill: rgb(83, 208, 149)"
        />
      </g>
      <path
        d="M1598.75,1528.65C1675.85,1543.77 1818.5,1678.05 1846.85,1812.49C1881.22,1975.39 1753.51,2112.31 1594.23,2118.19C1518.32,2120.99 1435.64,2109.49 1311.73,2002.62C1357.74,2036.33 1414.48,2056.24 1475.84,2056.24C1629.33,2056.24 1753.94,1931.63 1753.94,1778.15C1753.94,1668.77 1690.66,1574.06 1598.75,1528.65Z"
        style="fill: rgb(36, 13, 213); stroke: rgb(36, 13, 213); stroke-width: 1px"
      />
      <g transform="matrix(1.11585,0,0,1.11585,-203.197,-232.125)">
        <circle
          cx="1504.71"
          cy="1801.56"
          r="249.225"
          style="
            fill: none;
            stroke: rgb(36, 13, 213);
            stroke-width: 36.91px;
            stroke-linecap: round;
            stroke-miterlimit: 1.5;
          "
        />
      </g>
      <path
        d="M1631.38,1546.9C1704.29,1594.93 1818.39,1677.58 1846.85,1812.49C1881.22,1975.39 1753.51,2112.31 1594.23,2118.19C1517.12,2121.04 1437.74,2105.12 1305.83,1997.49"
        style="fill: none; stroke: rgb(36, 13, 213); stroke-width: 41.18px; stroke-miterlimit: 1.5"
      />
    </g>
    <g id="Layer22" transform="matrix(1,0,0,1,0,-1237)">
      <g transform="matrix(1,0,0,1,-2.27374e-13,1283.86)">
        <path
          d="M1311.73,765.619C1242.64,715.001 1197.74,633.274 1197.74,541.143C1197.74,387.656 1322.35,263.044 1475.84,263.044C1519.95,263.044 1561.68,273.338 1598.75,291.651C1690.66,337.058 1753.94,431.769 1753.94,541.143C1753.94,694.63 1629.33,819.241 1475.84,819.241C1416.36,819.241 1361.23,800.531 1315.99,768.68C1314.56,767.673 1313.14,766.652 1311.73,765.619Z"
          style="fill: rgb(83, 208, 149)"
        />
      </g>
      <g transform="matrix(1,0,0,1,0,46.8522)">
        <path
          d="M1598.75,1528.65C1675.85,1543.77 1818.5,1678.05 1846.85,1812.49C1881.22,1975.39 1753.51,2112.31 1594.23,2118.19C1518.32,2120.99 1435.64,2109.49 1311.73,2002.62C1357.74,2036.33 1414.48,2056.24 1475.84,2056.24C1629.33,2056.24 1753.94,1931.63 1753.94,1778.15C1753.94,1668.77 1690.66,1574.06 1598.75,1528.65Z"
          style="fill: rgb(36, 13, 213); stroke: rgb(36, 13, 213); stroke-width: 1px"
        />
      </g>
      <g transform="matrix(1.11585,0,0,1.11585,-203.197,-185.272)">
        <circle
          cx="1504.71"
          cy="1801.56"
          r="249.225"
          style="
            fill: none;
            stroke: rgb(36, 13, 213);
            stroke-width: 36.91px;
            stroke-linecap: round;
            stroke-miterlimit: 1.5;
          "
        />
      </g>
      <g transform="matrix(1,0,0,1,0,46.8522)">
        <path
          d="M1631.38,1546.9C1704.29,1594.93 1818.39,1677.58 1846.85,1812.49C1881.22,1975.39 1753.51,2112.31 1594.23,2118.19C1517.12,2121.04 1437.74,2105.12 1305.83,1997.49"
          style="
            fill: none;
            stroke: rgb(36, 13, 213);
            stroke-width: 41.18px;
            stroke-miterlimit: 1.5;
          "
        />
      </g>
    </g>
    <g id="Layer23" transform="matrix(1,0,0,1,556.197,-618.501)">
      <g transform="matrix(1,0,0,1,-556.197,618.501)">
        <path
          d="M1867.93,1384.12C1798.84,1333.5 1753.94,1251.78 1753.94,1159.64C1753.94,1006.16 1878.55,881.546 2032.04,881.546C2076.15,881.546 2117.88,891.839 2154.95,910.152C2246.86,955.559 2310.13,1050.27 2310.13,1159.64C2310.13,1313.13 2185.52,1437.74 2032.04,1437.74C1972.56,1437.74 1917.42,1419.03 1872.19,1387.18C1870.76,1386.17 1869.34,1385.15 1867.93,1384.12Z"
          style="fill: rgb(83, 208, 149)"
        />
      </g>
      <path
        d="M1598.75,1528.65C1675.85,1543.77 1818.5,1678.05 1846.85,1812.49C1881.22,1975.39 1753.51,2112.31 1594.23,2118.19C1518.32,2120.99 1435.64,2109.49 1311.73,2002.62C1357.74,2036.33 1414.48,2056.24 1475.84,2056.24C1629.33,2056.24 1753.94,1931.63 1753.94,1778.15C1753.94,1668.77 1690.66,1574.06 1598.75,1528.65Z"
        style="fill: rgb(36, 13, 213); stroke: rgb(36, 13, 213); stroke-width: 1px"
      />
      <g transform="matrix(1.11585,0,0,1.11585,-203.197,-232.125)">
        <circle
          cx="1504.71"
          cy="1801.56"
          r="249.225"
          style="
            fill: none;
            stroke: rgb(36, 13, 213);
            stroke-width: 36.91px;
            stroke-linecap: round;
            stroke-miterlimit: 1.5;
          "
        />
      </g>
      <path
        d="M1631.38,1546.9C1704.29,1594.93 1818.39,1677.58 1846.85,1812.49C1881.22,1975.39 1753.51,2112.31 1594.23,2118.19C1517.12,2121.04 1437.74,2105.12 1305.83,1997.49"
        style="fill: none; stroke: rgb(36, 13, 213); stroke-width: 41.18px; stroke-miterlimit: 1.5"
      />
    </g>
  </g>
</svg>
