<svg
  xmlns="http://www.w3.org/2000/svg"
  x="0"
  y="0"
  width="100"
  height="100"
  viewBox="-2 -100 910 910"
>
  <title>Sega Dreamcast</title>
  <style type="text/css">
    .st0 {
      display: none;
    }
    .st1 {
      display: inline;
    }
    .st2 {
      fill: url(#SVGID_1_);
    }
    .st3 {
      fill: url(#SVGID_00000154411834958825412560000016388276797406747563_);
    }
    .st4 {
      clip-path: url(#SVGID_00000022543483861396637740000016662012003075543964_);
    }
    .st5 {
      clip-path: url(#SVGID_00000033367015013965032580000010785295191740750994_);
      fill: none;
    }
    .st6 {
      fill: none;
    }
    .st7 {
      fill: url(#SVGID_00000144306509480848804720000014171349637263923089_);
    }
    .st8 {
      clip-path: url(#SVGID_00000081642018982663473500000000760706047353069711_);
    }
    .st9 {
      clip-path: url(#SVGID_00000146491190105197983540000005064633326444796590_);
    }
    .st10 {
      clip-path: url(#SVGID_00000015317522397484024540000012549620216115799742_);
    }
    .st11 {
      fill: url(#SVGID_00000139251648676231581700000017903613625891227569_);
    }
    .st12 {
      fill: url(#SVGID_00000083773434887753054980000006269726777004513197_);
    }
    .st13 {
      clip-path: url(#SVGID_00000149383770720399505440000014789173207799778976_);
    }
    .st14 {
      clip-path: url(#SVGID_00000031188642840489795150000006926841574383276975_);
      fill: none;
    }
    .st15 {
      fill: url(#SVGID_00000051384491948520441400000007979229128976574605_);
    }
    .st16 {
      clip-path: url(#SVGID_00000093877329935068024220000011982934663949215369_);
    }
    .st17 {
      clip-path: url(#SVGID_00000058557930894513974500000017089782215995585172_);
    }
    .st18 {
      clip-path: url(#SVGID_00000112616387021696801300000018444688321222292158_);
    }
    .st19 {
      fill: #ffffff;
    }
    .st20 {
      fill: url(#SVGID_00000008868233684604685080000006905950612817590414_);
    }
    .st21 {
      fill: url(#SVGID_00000030455989224608727390000008339782147115650705_);
    }
    .st22 {
      clip-path: url(#SVGID_00000074430427603457789930000016190090080449930903_);
      fill: #ffffff;
    }
    .st23 {
      clip-path: url(#SVGID_00000097484907464348344020000012003726208681571986_);
      fill: none;
    }
    .st24 {
      fill: url(#SVGID_00000096055670093237255870000007212648188777738163_);
    }
    .st25 {
      clip-path: url(#SVGID_00000031897533814841076380000002314131718670696861_);
      fill: #ffffff;
    }
    .st26 {
      clip-path: url(#SVGID_00000085224462835581223450000006085313015579863696_);
      fill: #ffffff;
    }
    .st27 {
      clip-path: url(#SVGID_00000021802275142003474620000015193237033864998057_);
    }
    .st28 {
      clip-path: url(#SVGID_00000021802275142003474620000015193237033864998057_);
      fill: #ffffff;
    }
    .st29 {
      fill: url(#SVGID_00000057150157837861957670000013362035777737936512_);
    }
    .st30 {
      fill: url(#SVGID_00000016794325529130259500000005656402172555633317_);
    }
    .st31 {
      clip-path: url(#SVGID_00000062165779680720645980000005027517832822122161_);
      fill: #ffffff;
    }
    .st32 {
      clip-path: url(#SVGID_00000061430832625895029410000000726057123586232452_);
      fill: none;
    }
    .st33 {
      fill: url(#SVGID_00000178894650312242672000000011858724233019178391_);
    }
    .st34 {
      clip-path: url(#SVGID_00000038388781165090420200000013671341726778897819_);
      fill: #ffffff;
    }
    .st35 {
      clip-path: url(#SVGID_00000116193831103203314800000005517602005010862262_);
      fill: #ffffff;
    }
    .st36 {
      clip-path: url(#SVGID_00000062894880275556652470000012116467551330090382_);
    }
    .st37 {
      clip-path: url(#SVGID_00000062894880275556652470000012116467551330090382_);
      fill: #ffffff;
    }
    .st38 {
      clip-path: url(#SVGID_00000031899790874893216110000012856792546324030902_);
    }
    .st39 {
      clip-path: url(#SVGID_00000167387685072783887110000006946674296240607398_);
    }
    .st40 {
      clip-path: url(#SVGID_00000085243858526855036720000015176883500194071709_);
    }
    .st41 {
      clip-path: url(#SVGID_00000134223682842955619670000006755329580832638894_);
    }
    .st42 {
      clip-path: url(#SVGID_00000109740085679241349260000009838839939261182634_);
    }
    .st43 {
      clip-path: url(#SVGID_00000052823773170788160010000001151468104349951877_);
    }
    .st44 {
      clip-path: url(#SVGID_00000064354192487755440300000007820301299688695738_);
      fill: #ffffff;
    }
    .st45 {
      clip-path: url(#SVGID_00000134936100628249921960000009634368913295992978_);
      fill: #ffffff;
    }
    .st46 {
      clip-path: url(#SVGID_00000109740785319854737070000004215159682912059300_);
    }
    .st47 {
      clip-path: url(#SVGID_00000109740785319854737070000004215159682912059300_);
      fill: #ffffff;
    }
    .st48 {
      clip-path: url(#SVGID_00000121990759964056380030000004611667343495011222_);
      fill: #ffffff;
    }
    .st49 {
      clip-path: url(#SVGID_00000018211451229738971920000004245210189570020793_);
      fill: #ffffff;
    }
    .st50 {
      clip-path: url(#SVGID_00000100365329954494011490000002579604681501161394_);
    }
    .st51 {
      clip-path: url(#SVGID_00000100365329954494011490000002579604681501161394_);
      fill: #ffffff;
    }
    .st52 {
      fill: url(#SVGID_00000124146300228059113650000006245086345470679450_);
    }
    .st53 {
      fill: url(#SVGID_00000004547077551977614220000010805397635452346530_);
    }
    .st54 {
      clip-path: url(#SVGID_00000020368175185594896970000012674637608086603142_);
    }
    .st55 {
      clip-path: url(#SVGID_00000159440944729039417040000003655934361792739260_);
      fill: none;
    }
    .st56 {
      fill: url(#SVGID_00000027600726848235542990000006131210675785631400_);
    }
    .st57 {
      fill: url(#SVGID_00000137810502738850499560000004847462135018492050_);
    }
    .st58 {
      clip-path: url(#SVGID_00000010284334852277138410000008651922175264714174_);
    }
    .st59 {
      clip-path: url(#SVGID_00000107557020080648697030000012680041561683016110_);
      fill: none;
    }
    .st60 {
      fill: url(#SVGID_00000009585985128479474720000013856816906953814151_);
    }
    .st61 {
      clip-path: url(#SVGID_00000049943034429324183370000002047580245577038496_);
    }
    .st62 {
      clip-path: url(#SVGID_00000031204360133369372290000005440202098319916693_);
    }
    .st63 {
      clip-path: url(#SVGID_00000109743876191217434160000003022928696847972225_);
    }
    .st64 {
      fill: url(#SVGID_00000143609782145884706920000011104087473100180371_);
    }
    .st65 {
      clip-path: url(#SVGID_00000062896478617646460190000010861177476069231532_);
    }
    .st66 {
      clip-path: url(#SVGID_00000070079021688245934680000010262293439012684991_);
    }
    .st67 {
      clip-path: url(#SVGID_00000016775084963471892690000006274638178260585356_);
    }
    .st68 {
      clip-path: url(#SVGID_00000104675334146315303050000006072252418906503352_);
    }
    .st69 {
      clip-path: url(#SVGID_00000034072622592365276770000004861218626186305703_);
    }
    .st70 {
      clip-path: url(#SVGID_00000107555489915566834120000016455547552961414801_);
    }
    .st71 {
      fill: url(#SVGID_00000158000657420413679850000005636389245360455345_);
    }
    .st72 {
      clip-path: url(#SVGID_00000164482158364068673960000010138809308015556285_);
    }
    .st73 {
      clip-path: url(#SVGID_00000155868123367114579530000016871782070187218837_);
    }
    .st74 {
      clip-path: url(#SVGID_00000035510953212498671370000008855355607859053746_);
    }
    .st75 {
      fill: url(#SVGID_00000127031812260922347020000015852093959452535720_);
    }
    .st76 {
      fill: url(#SVGID_00000145744287620375117190000015759660730479847614_);
    }
    .st77 {
      clip-path: url(#SVGID_00000132771551865028551280000002976089635554422934_);
    }
    .st78 {
      clip-path: url(#SVGID_00000022531097370072033970000000568516101572441528_);
      fill: none;
    }
    .st79 {
      clip-path: url(#SVGID_00000047050905298189439400000007442864326978929556_);
    }
    .st80 {
      clip-path: url(#SVGID_00000097472595278059756810000014485687408846494906_);
    }
    .st81 {
      clip-path: url(#SVGID_00000140709710123901085130000000824998621016664234_);
    }
    .st82 {
      fill: url(#SVGID_00000165919418267600833420000006167451226138710404_);
    }
    .st83 {
      clip-path: url(#SVGID_00000096745038873350410770000006205171104525148554_);
    }
    .st84 {
      clip-path: url(#SVGID_00000057116576095492573950000008084781922382802102_);
    }
    .st85 {
      clip-path: url(#SVGID_00000113342586758950706670000001572601055427894935_);
    }
    .st86 {
      clip-path: url(#SVGID_00000147205168251826717030000012467382037629756815_);
    }
    .st87 {
      clip-path: url(#SVGID_00000145765051030007520940000017175243487927900825_);
    }
    .st88 {
      clip-path: url(#SVGID_00000054266942705171328960000006207574417750147759_);
    }
    .st89 {
      clip-path: url(#SVGID_00000181071554304962965130000018043284049439796886_);
    }
    .st90 {
      clip-path: url(#SVGID_00000008123045732898189800000017537197008233883037_);
    }
    .st91 {
      clip-path: url(#SVGID_00000000204600496155194340000000373941239421813135_);
    }
    .st92 {
      fill: url(#SVGID_00000146458180246769740400000013409696495558491012_);
    }
    .st93 {
      clip-path: url(#SVGID_00000068660215504144040430000009639014450809555876_);
    }
    .st94 {
      clip-path: url(#SVGID_00000150781197555711882110000015442434931023666855_);
    }
    .st95 {
      clip-path: url(#SVGID_00000062175120559177806160000005742664895147236506_);
    }
    .st96 {
      clip-path: url(#SVGID_00000135677302032906051870000007771106129032655005_);
    }
    .st97 {
      clip-path: url(#SVGID_00000039123060399536392140000009445200588433728435_);
      fill: #ffffff;
    }
    .st98 {
      clip-path: url(#SVGID_00000073695552207753551930000009252024831685374604_);
    }
    .st99 {
      clip-path: url(#SVGID_00000091695982325683657580000014107466114778930869_);
    }
    .st100 {
      clip-path: url(#SVGID_00000170979823296330433540000000687206938114097830_);
      fill: #ffffff;
    }
    .st101 {
      clip-path: url(#SVGID_00000080208706252976505370000002900334647450421149_);
    }
    .st102 {
      fill: url(#SVGID_00000098217043106816562710000009655758778699789730_);
    }
    .st103 {
      fill: url(#SVGID_00000119106185473133754420000014834696989384301493_);
    }
    .st104 {
      clip-path: url(#SVGID_00000035530335345575293400000001494146478640474514_);
    }
    .st105 {
      clip-path: url(#SVGID_00000020371654601304396700000004291630285959917475_);
      fill: none;
    }
    .st106 {
      clip-path: url(#SVGID_00000137840183429121816430000013788693377989251244_);
    }
    .st107 {
      clip-path: url(#SVGID_00000019638591631731471410000004621852219388325284_);
    }
    .st108 {
      clip-path: url(#SVGID_00000000215841285852007610000015243890330835794580_);
    }
    .st109 {
      fill: url(#SVGID_00000159432134099048402740000011824701045435668923_);
    }
    .st110 {
      fill: url(#SVGID_00000031186347713533474210000007591522554656925361_);
    }
    .st111 {
      fill: url(#SVGID_00000147936392596133606100000006171008084350187431_);
    }
    .st112 {
      clip-path: url(#SVGID_00000074417415627295820970000015351857877688316066_);
    }
    .st113 {
      clip-path: url(#SVGID_00000134230869703076195840000003456874500636960917_);
      fill: none;
    }
    .st114 {
      fill: url(#SVGID_00000014625096951524846030000013606882972444522624_);
    }
    .st115 {
      fill: url(#SVGID_00000139984667503181336290000013470227895976510367_);
    }
    .st116 {
      clip-path: url(#SVGID_00000068671280642774320680000007969722564118184870_);
    }
    .st117 {
      clip-path: url(#SVGID_00000067224232500681996110000011487099255182723207_);
      fill: none;
    }
    .st118 {
      clip-path: url(#SVGID_00000097502169860152891140000016293352916445761172_);
    }
    .st119 {
      clip-path: url(#SVGID_00000131345249176971257610000004033627437546586296_);
    }
    .st120 {
      clip-path: url(#SVGID_00000159439195931232110460000013608674626341214891_);
    }
    .st121 {
      fill: url(#SVGID_00000045592698917324422300000000891488534910053781_);
    }
    .st122 {
      fill: url(#SVGID_00000082354004853829389720000001646862756247875214_);
    }
    .st123 {
      fill: url(#SVGID_00000123418574998236810280000001803884460696515744_);
    }
    .st124 {
      clip-path: url(#SVGID_00000033365724843696053950000000755132635078309550_);
    }
    .st125 {
      clip-path: url(#SVGID_00000088817818637110618520000000342537565711837576_);
      fill: none;
    }
    .st126 {
      clip-path: url(#SVGID_00000036950087498740738850000017857803681295508610_);
    }
    .st127 {
      clip-path: url(#SVGID_00000158008254295395068500000002589559627935046567_);
    }
    .st128 {
      clip-path: url(#SVGID_00000054252522604386725890000010253969392161864621_);
    }
    .st129 {
      fill: url(#SVGID_00000163034892752015221490000011069867439576918202_);
    }
    .st130 {
      fill: url(#SVGID_00000158031305793730996020000017429838410548479913_);
    }
    .st131 {
      fill: url(#SVGID_00000119802625768722749050000010679662119724998318_);
    }
    .st132 {
      clip-path: url(#SVGID_00000066489187912322744760000016947472614965140882_);
    }
    .st133 {
      clip-path: url(#SVGID_00000068656948346556791450000005863395237078394504_);
      fill: none;
    }
    .st134 {
      clip-path: url(#SVGID_00000068657149769728037010000013705755326760966025_);
    }
    .st135 {
      clip-path: url(#SVGID_00000114753455054956162610000016853823865632896919_);
    }
    .st136 {
      clip-path: url(#SVGID_00000067915636812275236700000012368434512217714562_);
    }
    .st137 {
      fill: url(#SVGID_00000035525611948900616120000014947058516737458843_);
    }
    .st138 {
      fill: url(#SVGID_00000088109801135396622610000008304229408174908074_);
    }
    .st139 {
      fill: url(#SVGID_00000016051575127392720160000016843684691413138598_);
    }
    .st140 {
      clip-path: url(#SVGID_00000060015829516582459320000000340352008478817206_);
    }
    .st141 {
      clip-path: url(#SVGID_00000167358291480454208290000011384162532871227325_);
      fill: none;
    }
    .st142 {
      clip-path: url(#SVGID_00000146470644027033336060000001721813321113719449_);
    }
    .st143 {
      clip-path: url(#SVGID_00000016763758178243760340000014096093098180613036_);
    }
    .st144 {
      clip-path: url(#SVGID_00000166674817058631017790000012129330277067272869_);
    }
    .st145 {
      fill: url(#SVGID_00000155850107288023980130000011062498859932056194_);
    }
    .st146 {
      fill: url(#SVGID_00000178179751204313699340000001170077085136251543_);
    }
    .st147 {
      fill: url(#SVGID_00000058576631142164585930000002130258511359086721_);
    }
    .st148 {
      clip-path: url(#SVGID_00000001622516445155237770000009729729160383573391_);
    }
    .st149 {
      clip-path: url(#SVGID_00000015326745706039916960000016868960554988355497_);
      fill: none;
    }
    .st150 {
      clip-path: url(#SVGID_00000037652312641114864630000004919412836238157718_);
    }
    .st151 {
      clip-path: url(#SVGID_00000033343722132718968610000010427231133054237068_);
      fill: #ffffff;
    }
    .st152 {
      clip-path: url(#SVGID_00000130645611077992848860000010242869138769212056_);
    }
    .st153 {
      fill: url(#SVGID_00000136405784239569593920000012919812401804650112_);
    }
    .st154 {
      fill: url(#SVGID_00000135672346637828681700000014230700581153077920_);
    }
    .st155 {
      fill: url(#SVGID_00000173839429888900511000000009044127672871143313_);
    }
    .st156 {
      clip-path: url(#SVGID_00000152260226112135202390000017372470493003572380_);
      fill: #ffffff;
    }
    .st157 {
      clip-path: url(#SVGID_00000152224309432693433430000009014485966490244011_);
      fill: none;
    }
    .st158 {
      clip-path: url(#SVGID_00000085240428076524908290000005781792899232519094_);
    }
    .st159 {
      clip-path: url(#SVGID_00000018949538146610652300000010227309695002274747_);
      fill: #ffffff;
    }
    .st160 {
      clip-path: url(#SVGID_00000121278045555431632520000005344390804735873959_);
    }
    .st161 {
      fill: url(#SVGID_00000031180758650325915240000007774122113647865744_);
    }
    .st162 {
      fill: url(#SVGID_00000033368821457194089540000010220580291972850329_);
    }
    .st163 {
      fill: url(#SVGID_00000165942073544477964290000008897081317951159704_);
    }
    .st164 {
      clip-path: url(#SVGID_00000065075744916963395430000017293389679844279173_);
      fill: #ffffff;
    }
    .st165 {
      clip-path: url(#SVGID_00000147936224523821714950000008852901727524794532_);
      fill: none;
    }
  </style>
  <g style="" transform="matrix(1.502005, 0, 0, 1.502005, 1.59187, -278.78241)">
    <radialGradient
      id="SVGID_00000091736067609909437440000001882630711163093888_"
      cx="4565.3945"
      cy="10807.459"
      r="224.4259"
      gradientTransform="matrix(1 0 0 -1 -4213.2275 11144.4902)"
      gradientUnits="userSpaceOnUse"
    >
      <stop offset="0" style="stop-color: #ffffff" />
      <stop offset="0.1072" style="stop-color: #e1e7f2" />
      <stop offset="0.4368" style="stop-color: #88a1cc" />
      <stop offset="0.7055" style="stop-color: #476eb0" />
      <stop offset="0.8997" style="stop-color: #1e4e9f" />
      <stop offset="1" style="stop-color: #0f4298" />
    </radialGradient>
    <circle
      style="
        fill: url(#SVGID_00000091736067609909437440000001882630711163093888_);
      "
      cx="303.9"
      cy="402.9"
      r="189.9"
    />
    <g>
      <g>
        <defs>
          <path
            id="SVGID_00000109720088547363056450000015815829782206789289_"
            d="M209.1,479.9c25.3-6.2,50.6-12,75.9-18 c25.4-6,50.3-13.6,75-22c24.4-8.3,48.5-17.7,72.9-25.5c20.3-6.5,40.9-12.4,60.5-21c-1.6-33.6-12-64.9-29-91.7 c-21.8,6.3-44,11.6-66.1,17.3c-25.2,6.6-50.3,13.6-75.4,20.6c-24.6,6.8-49.3,13.6-73.8,20.5c-26.2,7.4-52.4,15.3-78.1,24.3 c-11,3.8-22,7.4-33.1,10.8c-5.9,1.7-11.7,3.7-17.5,5.8c-2.2,0.7-4.3,1.4-6.5,2.2c0,35,9.5,67.7,26,95.9 C162.8,491.7,185.9,485.5,209.1,479.9z"
          />
        </defs>
        <clipPath
          id="SVGID_00000036216515100532978220000018007039294139945640_"
        >
          <path
            d="M209.1,479.9c25.3-6.2,50.6-12,75.9-18 c25.4-6,50.3-13.6,75-22c24.4-8.3,48.5-17.7,72.9-25.5c20.3-6.5,40.9-12.4,60.5-21c-1.6-33.6-12-64.9-29-91.7 c-21.8,6.3-44,11.6-66.1,17.3c-25.2,6.6-50.3,13.6-75.4,20.6c-24.6,6.8-49.3,13.6-73.8,20.5c-26.2,7.4-52.4,15.3-78.1,24.3 c-11,3.8-22,7.4-33.1,10.8c-5.9,1.7-11.7,3.7-17.5,5.8c-2.2,0.7-4.3,1.4-6.5,2.2c0,35,9.5,67.7,26,95.9 C162.8,491.7,185.9,485.5,209.1,479.9z"
            style="overflow: visible"
          />
        </clipPath>
        <path
          style="
            clip-path: url(#SVGID_00000036216515100532978220000018007039294139945640_);
          "
          d="M99.4,574 c-9.2,0-18.1-0.2-26.9-0.6c-13.2-0.6-23.7-11.6-23.1-24.9c0.5-13.4,11.8-23.8,25.2-23c74.9,3.8,176.3-11,271.4-39.5 c92.9-28,166.2-64.5,196-97.8c3.5-3.9,8.6-10.3,10.9-16.8c1.5-4.4-1.2-9.2-5.9-10c-10-1.6-32.3-1.9-80.4,9.7 c-51,12.2-114.5,33.3-175.8,53.8C227.3,446,167.3,466,119.3,477.1C71,488.2,19.7,494.7,4.7,458.4c-6-14.3-9.2-36.9,9.2-63.4 c39.6-56.9,160.9-100,229.6-120.6c103.1-31.1,213.1-49.4,280.1-46.8c13.3,0.5,23.6,11.6,23,24.9c-0.5,13.3-11.6,23.6-24.9,23 c-62.1-2.4-166,15.1-264.6,44.7c-103.7,31.1-181.9,70.2-204,102c-1.1,1.6-2.1,3.2-2.8,4.6c-2.1,3.9-0.4,10.4,6.6,11 c10.5,0.9,30.5-1.5,66.8-11.3c43.6-11.6,96.2-28.7,152-47.3c159.3-53.1,259.2-83.3,303.2-56.7c12.3,7.4,20.1,18.8,22.3,33 c3.5,21.5-4.4,43.2-23.6,64.5c-36,40.2-115.4,81-217.9,111.7C269.2,559,176.1,574,99.4,574z"
        />
      </g>
      <g>
        <defs>
          <path
            id="SVGID_00000103238855629611091690000007449307792859065775_"
            d="M209.1,479.9c25.3-6.2,50.6-12,75.9-18 c25.4-6,50.3-13.6,75-22c24.4-8.3,48.5-17.7,72.9-25.5c20.3-6.5,40.9-12.4,60.5-21c-1.6-33.6-12-64.9-29-91.7 c-21.8,6.3-44,11.6-66.1,17.3c-25.2,6.6-50.3,13.6-75.4,20.6c-24.6,6.8-49.3,13.6-73.8,20.5c-26.2,7.4-52.4,15.3-78.1,24.3 c-11,3.8-22,7.4-33.1,10.8c-5.9,1.7-11.7,3.7-17.5,5.8c-2.2,0.7-4.3,1.4-6.5,2.2c0,35,9.5,67.7,26,95.9 C162.8,491.7,185.9,485.5,209.1,479.9z"
          />
        </defs>
        <clipPath
          id="SVGID_00000126321013592003222760000013295353828220164492_"
        >
          <path
            d="M209.1,479.9c25.3-6.2,50.6-12,75.9-18 c25.4-6,50.3-13.6,75-22c24.4-8.3,48.5-17.7,72.9-25.5c20.3-6.5,40.9-12.4,60.5-21c-1.6-33.6-12-64.9-29-91.7 c-21.8,6.3-44,11.6-66.1,17.3c-25.2,6.6-50.3,13.6-75.4,20.6c-24.6,6.8-49.3,13.6-73.8,20.5c-26.2,7.4-52.4,15.3-78.1,24.3 c-11,3.8-22,7.4-33.1,10.8c-5.9,1.7-11.7,3.7-17.5,5.8c-2.2,0.7-4.3,1.4-6.5,2.2c0,35,9.5,67.7,26,95.9 C162.8,491.7,185.9,485.5,209.1,479.9z"
            style="overflow: visible"
          />
        </clipPath>
        <path
          style="
            clip-path: url(#SVGID_00000126321013592003222760000013295353828220164492_);
          "
          fill="none"
          d="M91.8,527.1 c-22-37.6-33.6-80.5-33.6-124.1v-40.2L96.3,350c1-0.3,2.1-0.6,3-1c0.8-0.3,1.6-0.5,2.4-0.8c7.1-2.5,13.9-4.6,20.3-6.6 c11.4-3.5,23-7.3,34.4-11.3c27-9.5,53.9-17.3,76.8-23.8c17.7-4.9,35.6-10,52.9-14.7c7.4-2.1,14.7-4.1,22.1-6.1l12-3.3 c21-5.9,42.6-11.8,64.3-17.5c6.9-1.7,13.8-3.6,20.8-5.4c15.2-3.8,29.6-7.5,43.8-11.6l40.3-11.6l22.4,35.5 c22.4,35.6,35.5,76.7,37.6,118.7l2,38.5l-35.4,15.4c-18.6,8.1-37,13.9-54.7,19.5c-3.7,1.1-7.3,2.4-11,3.5 c-13.3,4.2-26.4,9.1-40.3,14c-10.3,3.7-21,7.6-31.8,11.2c-29.2,9.9-55.4,17.6-80.1,23.5c-8.5,2.1-17,4-25.5,6 c-16.5,3.8-33.4,7.8-50,11.9c-26,6.4-46.9,12.1-65.6,18l-42.4,13.4L91.8,527.1z"
        />
      </g>
    </g>
    <g>
      <path
        d="M56.8,437.8c-7-0.6-8.6-7.1-6.6-11c0.7-1.4,1.6-3,2.8-4.6c10.1-14.6,32.1-30.7,62.9-46.9c3.3-22.4,10.4-43.5,20.8-62.7 c-51,21.9-100.3,49.9-122.9,82.4c-18.3,26.4-15.1,49.1-9.2,63.4c15,36.3,66.4,29.8,114.6,18.7c2.9-0.7,5.8-1.4,8.8-2.1 c-6-14.6-10.2-30.2-12.4-46.4C84.3,436.6,66.5,438.7,56.8,437.8z"
      />
      <path
        d="M448.2,279.4c27.9-3.3,53-4.7,73.5-3.9c13.3,0.5,24.4-9.8,24.9-23c0.5-13.3-9.8-24.4-23-24.9 c-33.2-1.3-76.9,2.6-125.1,10.6C417.3,249,434.1,263,448.2,279.4z"
      />
      <path
        d="M601.1,355.5c-2.3-14.2-10-25.6-22.3-33c-21.4-12.9-55.9-12.5-104-2.5c7,14.4,12.2,29.8,15.4,45.9 c32.2-6.3,48.7-5.9,56.9-4.5c4.6,0.8,7.4,5.6,5.9,10c-2.3,6.5-7.4,12.9-10.9,16.8c-11,12.3-28,25.1-49.6,37.6 c-2.7,22.7-9.4,44.2-19.4,63.7c47.1-21.9,83.4-45.7,104.5-69.4C596.7,398.7,604.6,377,601.1,355.5z"
      />
      <path
        d="M156.9,523.2c-29.6,2.7-57.4,3.5-82.3,2.2c-13.4-0.7-24.7,9.7-25.2,23c-0.5,13.3,10,24.3,23.1,24.9 c8.7,0.4,17.7,0.6,26.9,0.6c33.1,0,69.2-2.8,106.8-8.2C187.4,554.6,170.8,540.1,156.9,523.2z"
      />
      <path
        class="st6"
        d="M398.4,238.2c-27.8-16-60.1-25.2-94.6-25.2c-72.2,0-135,40.3-167.1,99.6c38.2-16.4,77.3-29.3,106.7-38.2 C295.5,258.7,349.3,246.3,398.4,238.2z"
      />
      <path
        class="st6"
        d="M115.9,375.3c-1.3,9-2,18.3-2,27.7c0,8.7,0.6,17.3,1.7,25.6c2.6-0.7,5.2-1.3,7.9-2.1 c43.6-11.6,96.2-28.7,152-47.3c82-27.3,148.2-48.6,199.2-59.2c-7.1-14.7-16.1-28.3-26.6-40.6c-56.6,6.6-125,21-191.1,40.8 C200.9,337,152.3,356.2,115.9,375.3z"
      />
      <path
        class="st6"
        d="M206.2,565.9c28.5,17.1,61.9,27,97.6,27c73.7,0,137.7-42,169.1-103.4c-32.9,15.3-71.2,29.7-113.4,42.3 C308.2,547.2,255.9,558.8,206.2,565.9z"
      />
      <path
        class="st6"
        d="M492.4,425.7c0.9-7.5,1.4-15.1,1.4-22.8c0-12.7-1.3-25-3.6-37c-7,1.4-14.8,3.1-23.4,5.1 c-51,12.2-114.5,33.3-175.8,53.8c-59.8,19.9-116.3,38.7-162.8,50.2c7.2,17.6,17,33.8,28.8,48.3c59.4-5.4,125.7-18.3,189.1-37.3 C404.6,468.3,455.4,447.2,492.4,425.7z"
      />
    </g>
  </g>
</svg>
